<?xml version="1.0" standalone="no"?>
<!DOCTYPE svg PUBLIC "-//W3C//DTD SVG 20010904//EN"
 "http://www.w3.org/TR/2001/REC-SVG-20010904/DTD/svg10.dtd">
<svg version="1.0" xmlns="http://www.w3.org/2000/svg"
 width="804.000000pt" height="804.000000pt" viewBox="0 0 804.000000 804.000000"
 preserveAspectRatio="xMidYMid meet">
<metadata>
Created by potrace 1.11, written by Peter Selinger 2001-2013
</metadata>
<g transform="translate(0.000000,804.000000) scale(0.100000,-0.100000)"
fill="#000000" stroke="none">
<path d="M4363 7717 c7 -18 43 -183 52 -237 37 -220 39 -231 49 -305 32 -236
47 -534 31 -617 -6 -33 -13 -68 -20 -103 -11 -51 -52 -153 -89 -218 -166 -297
-531 -433 -864 -321 -268 90 -458 300 -527 584 -8 30 -18 158 -17 203 0 31 -1
57 -3 57 -2 0 -42 -51 -88 -112 -166 -225 -301 -465 -396 -708 -45 -114 -104
-292 -116 -347 -3 -13 -7 -32 -10 -43 -17 -67 -46 -217 -51 -265 -2 -22 -6
-49 -9 -60 -12 -60 -20 -191 -20 -355 0 -198 9 -305 35 -411 6 -24 13 -54 15
-66 3 -12 10 -35 16 -50 6 -16 11 -30 11 -33 1 -5 5 -20 14 -47 3 -10 5 -19 5
-20 0 -15 90 -204 129 -274 96 -167 237 -334 412 -487 91 -79 290 -196 428
-252 30 -12 64 -26 75 -30 181 -75 502 -119 720 -99 140 13 176 19 275 43 662
162 1162 678 1299 1343 35 169 43 351 28 593 -9 138 -40 379 -61 470 -4 14 -8
39 -11 55 -3 17 -13 59 -21 95 -9 36 -17 70 -18 75 -2 6 -9 30 -16 55 -7 25
-14 50 -15 55 -4 16 -75 228 -84 250 -5 11 -30 72 -56 135 -134 325 -337 657
-572 940 -133 160 -367 390 -517 510 -18 14 -19 13 -13 -3z m567 -2074 c12
-49 24 -97 26 -108 2 -11 6 -29 9 -40 11 -51 13 -63 20 -105 4 -25 9 -52 10
-60 1 -8 6 -40 10 -70 3 -30 8 -66 10 -80 8 -50 16 -197 16 -300 1 -118 -6
-180 -27 -260 -8 -30 -16 -62 -19 -71 -2 -9 -18 -51 -35 -93 -132 -316 -440
-560 -785 -621 -79 -14 -243 -14 -314 1 -286 59 -500 275 -549 553 -14 77 -8
226 12 294 81 277 279 434 641 507 109 22 267 75 404 135 72 32 277 147 291
164 3 3 28 24 55 45 55 43 185 175 185 188 0 4 4 8 9 8 5 0 18 -39 31 -87z"/>
<path d="M1760 2683 c0 -2 44 -134 99 -295 54 -161 115 -342 135 -403 20 -60
41 -119 46 -130 4 -11 11 -29 13 -40 3 -11 100 -299 215 -640 116 -341 216
-636 222 -655 6 -19 16 -47 22 -63 l11 -27 221 2 221 3 31 90 c84 249 216 637
399 1180 111 330 230 682 265 783 34 101 60 186 57 189 -9 8 -469 5 -478 -4
-7 -7 -127 -385 -159 -498 -7 -28 -162 -531 -250 -815 -21 -69 -48 -154 -58
-190 -11 -36 -22 -58 -25 -50 -10 28 -66 205 -87 275 -12 39 -53 171 -92 295
-38 124 -99 320 -135 435 -35 116 -75 244 -88 285 -13 41 -36 116 -51 165 -15
50 -31 94 -34 98 -6 7 -500 16 -500 10z"/>
<path d="M3999 2682 c-12 -2 -14 -153 -12 -1055 1 -578 2 -1085 3 -1124 l0
-73 235 0 235 0 -1 1125 0 1125 -32 0 c-328 4 -416 5 -428 2z"/>
<path d="M4719 2670 c-1 -20 -1 -2211 0 -2227 1 -10 55 -13 236 -13 l235 0 0
409 0 408 278 -1 c383 -1 450 8 604 86 151 77 276 228 322 388 26 94 30 121
30 240 0 131 -18 215 -69 325 -105 229 -319 373 -577 391 -51 3 -310 7 -576 8
-422 1 -482 -1 -483 -14z m1057 -394 c110 -29 166 -75 210 -170 22 -48 27 -73
27 -140 0 -128 -50 -230 -137 -281 -80 -46 -138 -54 -422 -55 l-264 -1 0 331
0 331 269 -1 c185 -1 284 -5 317 -14z"/>
</g>
</svg>
