<?xml version="1.0" standalone="no"?>
<!DOCTYPE svg PUBLIC "-//W3C//DTD SVG 20010904//EN"
 "http://www.w3.org/TR/2001/REC-SVG-20010904/DTD/svg10.dtd">
<svg version="1.0" xmlns="http://www.w3.org/2000/svg"
 width="5063.000000pt" height="1533.000000pt" viewBox="0 0 5063.000000 1533.000000"
 preserveAspectRatio="xMidYMid meet">
<metadata>
Created by potrace 1.15, written by Peter Selinger 2001-2017
</metadata>
<g transform="translate(0.000000,1533.000000) scale(0.100000,-0.100000)"
fill="#000000" stroke="none">
<path d="M1720 14045 c-289 -48 -616 -215 -833 -424 -143 -138 -231 -274 -289
-446 l-23 -70 -3 -4356 -2 -4356 272 -6 c149 -4 595 -7 990 -7 l719 0 -3 2000
-3 2000 1783 0 1782 0 0 900 0 900 -1780 0 -1780 0 0 965 0 965 2205 0 2205 0
0 975 0 975 -2582 -1 c-2034 -1 -2599 -4 -2658 -14z"/>
<path d="M10455 11744 c-672 -42 -1128 -157 -1625 -410 -332 -169 -575 -349
-840 -620 -162 -166 -241 -263 -365 -449 -350 -524 -551 -1140 -616 -1880 -16
-179 -16 -649 0 -830 91 -1052 489 -1922 1137 -2487 585 -509 1304 -795 2161
-858 216 -16 731 -8 913 15 689 85 1265 307 1755 675 663 500 1112 1261 1279
2171 57 310 70 472 70 894 0 308 -3 423 -17 545 -134 1186 -629 2073 -1472
2637 -480 321 -1035 513 -1675 578 -142 14 -586 26 -705 19z m549 -1630 c852
-117 1310 -705 1397 -1798 13 -168 7 -685 -11 -826 -102 -846 -418 -1350 -985
-1573 -212 -84 -428 -120 -720 -120 -528 0 -899 134 -1195 432 -272 273 -434
666 -507 1226 -22 177 -26 816 -5 985 45 365 112 617 227 855 155 323 408 570
715 699 112 48 281 96 407 116 193 31 465 33 677 4z"/>
<path d="M14420 11575 c0 -2 523 -791 1161 -1752 639 -961 1162 -1752 1162
-1758 0 -5 -528 -813 -1174 -1795 -646 -982 -1185 -1802 -1197 -1822 l-24 -38
1144 0 1143 0 605 1065 c332 586 607 1065 611 1065 3 0 284 -479 624 -1063
l619 -1064 1165 -6 c641 -3 1167 -5 1168 -3 2 2 -546 824 -1218 1827 -672
1003 -1222 1829 -1222 1834 0 6 532 795 1182 1755 809 1196 1176 1746 1166
1748 -8 2 -79 -4 -157 -13 -865 -97 -1686 -433 -2307 -943 -133 -109 -366
-335 -478 -464 -121 -139 -301 -384 -379 -515 -37 -62 -73 -114 -80 -117 -8
-3 -38 37 -82 112 -390 659 -1035 1219 -1787 1553 -356 158 -720 269 -1095
333 -173 30 -550 72 -550 61z"/>
<path d="M22310 11555 c0 -2 523 -791 1161 -1752 639 -961 1162 -1752 1162
-1758 0 -5 -528 -813 -1174 -1795 -646 -982 -1185 -1802 -1197 -1822 l-24 -38
1144 0 1143 0 605 1065 c332 586 607 1065 611 1065 3 0 284 -479 624 -1063
l619 -1064 1165 -6 c641 -3 1167 -5 1168 -3 2 2 -546 824 -1218 1827 -672
1003 -1222 1829 -1222 1834 0 6 532 795 1182 1755 809 1196 1176 1746 1166
1748 -8 2 -79 -4 -157 -13 -865 -97 -1686 -433 -2307 -943 -133 -109 -366
-335 -478 -464 -121 -139 -301 -384 -379 -515 -37 -62 -73 -114 -80 -117 -8
-3 -38 37 -82 112 -390 659 -1035 1219 -1787 1553 -356 158 -720 269 -1095
333 -173 30 -550 72 -550 61z"/>
<path d="M30433 9108 c4 -2670 0 -2520 58 -2808 130 -647 491 -1195 1023
-1552 334 -223 702 -353 1211 -425 185 -26 744 -26 920 0 449 66 805 177 1194
372 l151 75 0 -380 c0 -501 -20 -644 -125 -901 -156 -382 -406 -632 -785 -788
-142 -58 -439 -108 -710 -119 -612 -26 -1160 91 -1700 364 -373 188 -662 402
-970 720 -69 71 -156 168 -194 217 -38 48 -71 86 -72 84 -7 -7 17 -388 31
-507 31 -248 99 -536 180 -757 92 -250 272 -560 443 -763 340 -406 787 -673
1369 -819 676 -169 1513 -171 2133 -5 770 207 1375 620 1774 1213 286 422 441
861 517 1461 10 73 13 1002 16 3933 l3 3837 -955 0 -955 0 -3 -2297 c-3 -2539
3 -2324 -63 -2523 -105 -316 -363 -600 -675 -744 -227 -105 -512 -156 -789
-142 -348 17 -600 113 -786 300 -184 185 -289 439 -324 785 -6 69 -10 858 -10
2362 l0 2259 -955 0 -956 0 4 -2452z"/>
<path d="M39811 9138 c0 -7 361 -1075 803 -2373 l802 -2360 478 0 478 0 804
2365 c442 1301 804 2368 804 2373 0 4 -235 6 -521 5 l-522 -3 -510 -1648
c-281 -906 -514 -1644 -517 -1640 -6 6 -821 2612 -1010 3226 l-21 67 -534 0
c-422 0 -535 -3 -534 -12z"/>
<path d="M44540 6775 l0 -2375 505 0 505 0 0 2375 0 2375 -505 0 -505 0 0
-2375z"/>
<path d="M46080 6775 l0 -2375 505 0 505 0 0 860 0 860 619 0 c494 0 643 3
734 15 573 75 1004 412 1185 926 65 184 100 435 88 634 -26 436 -177 781 -462
1055 -194 187 -431 309 -720 372 -98 22 -112 22 -1276 25 l-1178 4 0 -2376z
m2155 1530 c167 -25 297 -79 390 -162 85 -75 164 -218 191 -345 24 -110 15
-298 -20 -403 -71 -222 -222 -361 -461 -427 -77 -21 -99 -22 -662 -26 l-583
-3 0 690 0 691 523 0 c413 0 543 -3 622 -15z"/>
</g>
</svg>
