<?xml version="1.0" standalone="no"?>
<!DOCTYPE svg PUBLIC "-//W3C//DTD SVG 20010904//EN"
 "http://www.w3.org/TR/2001/REC-SVG-20010904/DTD/svg10.dtd">
<svg version="1.0" xmlns="http://www.w3.org/2000/svg"
 width="5261.000000pt" height="1533.000000pt" viewBox="0 0 5261.000000 1533.000000"
 preserveAspectRatio="xMidYMid meet">
<metadata>
Created by potrace 1.15, written by Peter Selinger 2001-2017
</metadata>
<g transform="translate(0.000000,1533.000000) scale(0.100000,-0.100000)"
fill="#000000" stroke="none">
<path d="M3680 14045 c-548 -92 -1007 -503 -1151 -1029 -57 -210 -52 132 -56
-4438 l-3 -4198 1020 0 1021 0 -3 2000 -3 2000 1783 0 1782 0 0 900 0 900
-1780 0 -1780 0 0 965 0 965 2205 0 2205 0 0 975 0 975 -2582 -1 c-2034 -1
-2599 -4 -2658 -14z"/>
<path d="M12330 11740 c-520 -36 -944 -147 -1355 -355 -160 -80 -372 -211
-476 -292 -198 -154 -397 -349 -543 -533 -50 -63 -95 -123 -101 -132 -5 -9
-37 -56 -71 -105 -33 -48 -67 -101 -76 -118 -8 -16 -35 -66 -61 -110 -78 -134
-195 -408 -262 -614 -76 -230 -103 -336 -144 -566 -65 -363 -81 -544 -81 -945
0 -401 16 -582 81 -945 39 -217 67 -331 130 -530 58 -181 106 -309 156 -407
18 -37 33 -73 33 -80 0 -7 25 -58 56 -113 31 -55 69 -124 86 -154 44 -80 200
-305 275 -396 368 -447 875 -789 1444 -974 237 -77 548 -138 822 -160 162 -14
588 -14 732 -1 700 64 1268 281 1786 684 79 62 140 117 248 226 92 93 270 297
279 319 3 7 34 52 70 100 35 47 70 97 76 111 6 14 36 66 67 115 58 94 217 419
230 470 4 17 29 89 56 160 91 240 173 593 220 950 15 119 18 212 18 625 0 509
-3 551 -50 840 -49 290 -119 569 -195 765 -23 61 -44 121 -47 135 -8 37 -179
394 -226 470 -22 36 -52 85 -66 110 -129 228 -457 594 -686 766 -27 21 -52 41
-55 44 -3 4 -48 36 -100 71 -461 315 -951 492 -1532 554 -175 19 -569 27 -738
15z m579 -1626 c425 -61 738 -253 962 -589 82 -122 77 -114 147 -275 60 -139
93 -244 127 -408 70 -335 90 -571 82 -971 -7 -349 -21 -484 -83 -776 -107
-511 -350 -894 -695 -1097 -424 -250 -1089 -275 -1556 -58 -219 102 -457 321
-567 522 -116 213 -172 360 -235 618 -57 233 -81 503 -81 900 0 480 41 795
139 1084 17 50 31 97 31 105 0 9 36 89 81 178 244 486 627 737 1199 783 120
10 315 3 449 -16z"/>
<path d="M16200 11575 c0 -2 523 -791 1161 -1752 639 -961 1162 -1752 1162
-1758 0 -5 -528 -813 -1174 -1795 -646 -982 -1185 -1802 -1197 -1822 l-24 -38
1144 0 1143 0 605 1065 c332 586 607 1065 611 1065 3 0 284 -479 624 -1063
l619 -1064 1165 -6 c641 -3 1167 -5 1168 -3 2 2 -546 824 -1218 1827 -672
1003 -1222 1829 -1222 1834 0 6 532 795 1182 1755 809 1196 1176 1746 1166
1748 -8 2 -79 -4 -157 -13 -865 -97 -1686 -433 -2307 -943 -133 -109 -366
-335 -478 -464 -121 -139 -301 -384 -379 -515 -37 -62 -73 -114 -80 -117 -8
-3 -38 37 -82 112 -390 659 -1035 1219 -1787 1553 -356 158 -720 269 -1095
333 -173 30 -550 72 -550 61z"/>
<path d="M24090 11555 c0 -2 523 -791 1161 -1752 639 -961 1162 -1752 1162
-1758 0 -5 -528 -813 -1174 -1795 -646 -982 -1185 -1802 -1197 -1822 l-24 -38
1144 0 1143 0 605 1065 c332 586 607 1065 611 1065 3 0 284 -479 624 -1063
l619 -1064 1165 -6 c641 -3 1167 -5 1168 -3 2 2 -546 824 -1218 1827 -672
1003 -1222 1829 -1222 1834 0 6 532 795 1182 1755 809 1196 1176 1746 1166
1748 -8 2 -79 -4 -157 -13 -865 -97 -1686 -433 -2307 -943 -133 -109 -366
-335 -478 -464 -121 -139 -301 -384 -379 -515 -37 -62 -73 -114 -80 -117 -8
-3 -38 37 -82 112 -390 659 -1035 1219 -1787 1553 -356 158 -720 269 -1095
333 -173 30 -550 72 -550 61z"/>
<path d="M32213 9108 c4 -2670 0 -2520 58 -2808 130 -647 491 -1195 1023
-1552 334 -223 702 -353 1211 -425 185 -26 744 -26 920 0 449 66 805 177 1194
372 l151 75 0 -620 c0 -505 -3 -640 -16 -731 -70 -508 -345 -923 -744 -1128
-203 -104 -337 -135 -575 -134 -568 2 -970 176 -1215 524 -134 191 -214 445
-227 716 l-6 123 -889 0 c-839 0 -888 -1 -888 -17 1 -88 23 -424 35 -523 31
-248 99 -536 180 -757 92 -250 272 -560 443 -763 340 -406 787 -673 1369 -819
676 -169 1513 -171 2133 -5 770 207 1375 620 1774 1213 286 422 445 874 517
1461 8 70 13 1166 16 4173 l4 4077 -955 0 -956 0 -3 -2297 c-3 -2539 3 -2324
-63 -2523 -105 -316 -363 -600 -675 -744 -227 -105 -512 -156 -789 -142 -348
17 -600 113 -786 300 -184 185 -289 439 -324 785 -6 69 -10 858 -10 2362 l0
2259 -955 0 -956 0 4 -2452z"/>
<path d="M41591 9138 c0 -7 361 -1075 803 -2373 l802 -2360 478 0 478 0 804
2365 c442 1301 804 2368 804 2373 0 4 -235 6 -521 5 l-522 -3 -510 -1648
c-281 -906 -514 -1644 -517 -1640 -6 6 -821 2612 -1010 3226 l-21 67 -534 0
c-422 0 -535 -3 -534 -12z"/>
<path d="M46320 6775 l0 -2375 505 0 505 0 0 2375 0 2375 -505 0 -505 0 0
-2375z"/>
<path d="M47860 6775 l0 -2375 505 0 505 0 0 860 0 860 619 0 c494 0 643 3
734 15 573 75 1004 412 1185 926 65 184 100 435 88 634 -26 436 -177 781 -462
1055 -194 187 -431 309 -720 372 -98 22 -112 22 -1276 25 l-1178 4 0 -2376z
m2155 1530 c167 -25 297 -79 390 -162 85 -75 164 -218 191 -345 24 -110 15
-298 -20 -403 -71 -222 -222 -361 -461 -427 -77 -21 -99 -22 -662 -26 l-583
-3 0 690 0 691 523 0 c413 0 543 -3 622 -15z"/>
</g>
</svg>
